# xmcd
#
# Track frame offsets:
#	150
#	19405
#	37575
#	57397
#	83650
#	111215
#	135377
#	153387
#	170872
#	177281
#
# Disc length: 2681 seconds
#
# Revision: 0
# Processed by: cddbd v1.4PL0 Copyright (c) Steve Scherf et al.
# Submitted via: dBpowerAMP V4.0
#
DISCID=7a0a770a
DTITLE=Sade - Stronger than pride
DYEAR=1900
DGENRE=Blues
TTITLE0=Love Is Stronger Than Pride
TTITLE1=Paradise
TTITLE2=Nothing Can Come Between Us 
TTITLE3=Haunt Me 
TTITLE4=Turn My Back On You
TTITLE5=Keep Looking
TTITLE6=Clean Heart 
TTITLE7=Give It Up
TTITLE8=I Never Thought I'd See The Day
TTITLE9=Siempre Hay Esperanza
EXTD=
EXTT0=
EXTT1=
EXTT2=
EXTT3=
EXTT4=
EXTT5=
EXTT6=
EXTT7=
EXTT8=
EXTT9=
PLAYORDER=
